<?xml version="1.0" encoding="UTF-8"?>
<svg version="1.1" xmlns="http://www.w3.org/2000/svg" width="451" height="451">
<path d="M0 0 C0.75188599 -0.00067474 1.50377197 -0.00134949 2.27844238 -0.00204468 C14.98111455 0.01598453 27.25592429 0.81727081 39.75 3.25 C40.62946289 3.41628906 41.50892578 3.58257812 42.41503906 3.75390625 C82.57579406 11.54650693 120.55049827 29.24638064 150.60546875 57.2578125 C152.54217432 59.05693789 154.53148736 60.74709196 156.5625 62.4375 C193.4972613 94.83902098 215.92342807 143.47493898 223.75 191.25 C223.94480957 192.43770996 223.94480957 192.43770996 224.14355469 193.64941406 C232.94085849 250.79492534 217.12993507 311.08010947 183.23754883 357.53637695 C178.10030055 364.45859447 172.63485908 370.94785091 166.75 377.25 C165.22822548 378.97833842 163.70739927 380.70751226 162.1875 382.4375 C158.9685089 386.00553833 155.67768083 389.28125681 151.99609375 392.3671875 C150.3368198 393.75809193 148.70828445 395.18585639 147.09765625 396.6328125 C119.5028975 421.21082506 85.42484081 436.67933702 49.75 445.25 C49.07066406 445.41725586 48.39132812 445.58451172 47.69140625 445.75683594 C-6.95737798 458.96457225 -68.08797037 446.96537364 -115.86669922 418.45629883 C-127.81953918 411.04613794 -139.18581711 402.53071441 -149.4296875 392.89453125 C-151.16084045 391.18301559 -151.16084045 391.18301559 -153.25 390.25 C-153.25 389.59 -153.25 388.93 -153.25 388.25 C-153.84167969 387.98445313 -154.43335938 387.71890625 -155.04296875 387.4453125 C-184.41054589 371.54004063 -206.01171527 321.42914954 -215.01782227 291.37890625 C-232.45558624 230.86750442 -225.26209808 167.96332591 -194.92431641 112.84130859 C-186.68886344 98.50575868 -176.51346107 85.31652319 -165.25 73.25 C-163.79129455 71.583659 -162.33296792 69.91698633 -160.875 68.25 C-126.79414065 30.59709181 -76.08332355 7.62988286 -26.25 1.25 C-25.18048096 1.10860596 -25.18048096 1.10860596 -24.08935547 0.96435547 C-16.08171291 0.02848422 -8.05108884 0.0065217 0 0 Z " fill="#F0C30F" transform="translate(225.25,0.75)"/>
<path d="M0 0 C0.75188599 -0.00067474 1.50377197 -0.00134949 2.27844238 -0.00204468 C14.98111455 0.01598453 27.25592429 0.81727081 39.75 3.25 C40.62946289 3.41628906 41.50892578 3.58257812 42.41503906 3.75390625 C82.57579406 11.54650693 120.55049827 29.24638064 150.60546875 57.2578125 C152.54217432 59.05693789 154.53148736 60.74709196 156.5625 62.4375 C193.4972613 94.83902098 215.92342807 143.47493898 223.75 191.25 C223.94480957 192.43770996 223.94480957 192.43770996 224.14355469 193.64941406 C232.94085849 250.79492534 217.12993507 311.08010947 183.23754883 357.53637695 C178.10030055 364.45859447 172.63485908 370.94785091 166.75 377.25 C165.22822548 378.97833842 163.70739927 380.70751226 162.1875 382.4375 C158.9685089 386.00553833 155.67768083 389.28125681 151.99609375 392.3671875 C150.3368198 393.75809193 148.70828445 395.18585639 147.09765625 396.6328125 C119.5028975 421.21082506 85.42484081 436.67933702 49.75 445.25 C49.07066406 445.41725586 48.39132812 445.58451172 47.69140625 445.75683594 C-6.95737798 458.96457225 -68.08797037 446.96537364 -115.86669922 418.45629883 C-127.81953918 411.04613794 -139.18581711 402.53071441 -149.4296875 392.89453125 C-151.16084045 391.18301559 -151.16084045 391.18301559 -153.25 390.25 C-153.25 389.59 -153.25 388.93 -153.25 388.25 C-153.84167969 387.98445313 -154.43335938 387.71890625 -155.04296875 387.4453125 C-184.41054589 371.54004063 -206.01171527 321.42914954 -215.01782227 291.37890625 C-232.45558624 230.86750442 -225.26209808 167.96332591 -194.92431641 112.84130859 C-186.68886344 98.50575868 -176.51346107 85.31652319 -165.25 73.25 C-163.79129455 71.583659 -162.33296792 69.91698633 -160.875 68.25 C-126.79414065 30.59709181 -76.08332355 7.62988286 -26.25 1.25 C-25.18048096 1.10860596 -25.18048096 1.10860596 -24.08935547 0.96435547 C-16.08171291 0.02848422 -8.05108884 0.0065217 0 0 Z M83.4375 28.3125 C81.48362848 30.44812701 79.60752044 32.5968458 77.75 34.8125 C75.31804854 37.69227883 72.74445392 39.94657391 69.75 42.25 C66.90465979 44.94942533 64.28408686 47.7622403 61.75 50.75 C57.66816389 55.55888071 53.22909258 59.77655146 48.3984375 63.8203125 C46.70013063 65.21227586 46.70013063 65.21227586 45.3359375 66.97265625 C43.75 68.25 43.75 68.25 41.578125 68.17578125 C40.72734375 67.97339844 39.8765625 67.77101562 39 67.5625 C26.13478031 64.73735617 13.5625265 63.87254224 0.4375 63.9375 C-0.33035828 63.93932281 -1.09821655 63.94114563 -1.88934326 63.94302368 C-13.2622611 63.98843252 -24.18445773 64.4581829 -35.25 67.25 C-35.91950684 67.41097168 -36.58901367 67.57194336 -37.27880859 67.73779297 C-72.53604266 76.3676497 -105.37811107 97.17427463 -127.25 126.25 C-127.8996875 127.07242188 -128.549375 127.89484375 -129.21875 128.7421875 C-141.58585291 144.88812741 -149.86310119 163.52414189 -155.5625 182.9375 C-155.80516602 183.75581299 -156.04783203 184.57412598 -156.29785156 185.41723633 C-159.71483076 197.63885746 -160.5820406 209.82008527 -160.51074219 222.43579102 C-160.50002586 224.68207882 -160.51070663 226.92756437 -160.5234375 229.17382812 C-160.53456061 239.87499652 -160.14886497 250.60877656 -157.18847656 260.96264648 C-156.25453163 264.23412632 -156.08511224 266.86980092 -156.25 270.25 C-156.806875 270.45625 -157.36375 270.6625 -157.9375 270.875 C-160.51080592 272.40507379 -161.9597686 274.25819613 -163.8059082 276.57958984 C-165.29737881 278.30480402 -166.85827776 279.69971838 -168.60546875 281.1640625 C-174.15470512 285.96153631 -179.37695862 291.08222704 -184.58959961 296.23950195 C-185.74907132 297.38221497 -186.91390629 298.51950876 -188.08374023 299.65161133 C-189.78801214 301.30144878 -191.47553917 302.96684619 -193.16015625 304.63671875 C-193.68706558 305.14095871 -194.21397491 305.64519867 -194.7568512 306.16471863 C-196.37943051 307.73893648 -196.37943051 307.73893648 -198.25 310.25 C-197.95179502 313.77622945 -196.3794306 315.48755252 -193.92358398 317.91699219 C-193.2229332 318.61741638 -192.52228241 319.31784058 -191.80039978 320.03948975 C-191.03997879 320.78442688 -190.2795578 321.52936401 -189.49609375 322.296875 C-188.33292381 323.45367767 -188.33292381 323.45367767 -187.14625549 324.6338501 C-184.66695059 327.0963571 -182.17742008 329.54823134 -179.6875 332 C-178.0051756 333.66727909 -176.32352633 335.33523969 -174.64257812 337.00390625 C-170.51952125 341.09387902 -166.38801942 345.17516921 -162.25 349.25 C-158.03323595 347.32139535 -155.16678209 344.42029862 -151.953125 341.1484375 C-151.35949158 340.55197418 -150.76585815 339.95551086 -150.15423584 339.3409729 C-148.26473373 337.4403019 -146.38231608 335.53278526 -144.5 333.625 C-143.21790935 332.33287532 -141.93536239 331.04120324 -140.65234375 329.75 C-137.51291568 326.58855521 -134.37982199 323.4209539 -131.25 320.25 C-128.40737631 323.07899626 -125.61351188 325.89500258 -123 328.9375 C-122.39929688 329.62585938 -121.79859375 330.31421875 -121.1796875 331.0234375 C-119.86364949 332.54194289 -118.55670226 334.06836321 -117.2578125 335.6015625 C-96.82548848 359.17732098 -68.86890263 373.73488494 -39.25 382.25 C-38.45674316 382.49008789 -37.66348633 382.73017578 -36.84619141 382.97753906 C-24.76283027 386.52354183 -12.55652998 386.63191324 -0.0625 386.6875 C0.74052551 386.69394531 1.54355103 386.70039063 2.37091064 386.70703125 C32.05152038 386.85260248 67.58292652 378.70548594 91 359.39453125 C92.75 358.25 92.75 358.25 94.6473999 358.48777771 C97.10983083 359.38044377 98.30508547 360.44264601 100.14160156 362.30102539 C100.7819635 362.94161392 101.42232544 363.58220245 102.08209229 364.24220276 C102.76140808 364.93700241 103.44072388 365.63180206 104.140625 366.34765625 C104.84523865 367.05651474 105.54985229 367.76537323 106.27581787 368.49571228 C108.52434785 370.7610328 110.76222238 373.03656208 113 375.3125 C114.52274708 376.85029335 116.04617654 378.38741131 117.5703125 379.92382812 C121.3048281 383.69141802 125.0306485 387.46744265 128.75 391.25 C132.46924985 389.51677165 134.81418267 387.39050872 137.6875 384.4375 C138.52152344 383.58542969 139.35554688 382.73335938 140.21484375 381.85546875 C141.05144531 380.99566406 141.88804687 380.13585937 142.75 379.25 C143.63042969 378.37859375 144.51085937 377.5071875 145.41796875 376.609375 C147.84496224 374.23217908 147.84496224 374.23217908 150.125 371.3125 C152.4934187 368.40783555 155.16964255 366.0846664 158.046875 363.6953125 C160.42071186 361.68081792 162.58007665 359.480199 164.75 357.25 C165.75 356.25 166.75 355.25 167.75 354.25 C166.40427113 351.25056095 164.91462899 349.16923821 162.58544922 346.85839844 C161.94493622 346.2180365 161.30442322 345.57767456 160.64450073 344.91790771 C159.95486237 344.23859192 159.265224 343.55927612 158.5546875 342.859375 C157.84724396 342.15476135 157.13980042 341.45014771 156.41091919 340.72418213 C154.15360138 338.4780461 151.88942367 336.23896991 149.625 334 C148.09199047 332.47702283 146.55943285 330.95359061 145.02734375 329.4296875 C141.27345427 325.69783185 137.51391086 321.97174649 133.75 318.25 C134.27964355 317.3307373 134.80928711 316.41147461 135.35498047 315.46435547 C151.94272545 286.60616994 162.23344584 258.65908049 162.0625 224.9375 C162.06034485 224.16864471 162.0581897 223.39978943 162.05596924 222.6076355 C162.00496397 211.25572127 161.6439056 200.27700237 158.75 189.25 C158.55132324 188.46737793 158.35264648 187.68475586 158.14794922 186.87841797 C151.86970632 162.72952112 141.0359792 140.21455801 124.75 121.25 C124.27159668 120.69183594 123.79319336 120.13367188 123.30029297 119.55859375 C116.92580707 112.21013925 110.1084518 105.72375012 102.5625 99.58984375 C99.75 97.25 99.75 97.25 95.75 93.25 C105.32 83.68 114.89 74.11 124.75 64.25 C123.06093516 60.87187032 121.99788995 59.24311536 119.44946289 56.67480469 C118.77859146 55.99440125 118.10772003 55.3139978 117.41651917 54.61297607 C116.6925444 53.88991272 115.96856964 53.16684937 115.22265625 52.421875 C114.47793564 51.67286926 113.73321503 50.92386353 112.96592712 50.15216064 C111.39235424 48.5728507 109.81616177 46.99614712 108.23754883 45.421875 C105.81637662 43.00387155 103.40884586 40.57283275 101.00195312 38.140625 C99.47216506 36.60856488 97.94159258 35.07728753 96.41015625 33.546875 C95.68820572 32.81571472 94.96625519 32.08455444 94.22242737 31.33123779 C93.54840378 30.66344299 92.87438019 29.99564819 92.17993164 29.30761719 C91.58861954 28.71567566 90.99730743 28.12373413 90.38807678 27.51385498 C87.44978942 25.24682504 86.06161609 25.97207213 83.4375 28.3125 Z " fill="#393838" transform="translate(225.25,0.75)"/>
<path d="M0 0 C0.78890625 0.65484375 1.5778125 1.3096875 2.390625 1.984375 C18.44545976 16.73393864 29.8891072 40.28643623 31.17700195 61.98168945 C31.60557068 83.88308826 29.43412394 100.31024133 20 120 C14.66310962 115.54866909 9.71983123 110.83911188 4.8359375 105.8984375 C3.70328964 104.76010971 3.70328964 104.76010971 2.54776001 103.5987854 C0.15438606 101.19328072 -2.23570693 98.78455767 -4.625 96.375 C-7.78094579 93.19240569 -10.9402217 90.01317187 -14.1015625 86.8359375 C-14.81937897 86.10982269 -15.53719543 85.38370789 -16.27676392 84.6355896 C-19.70737434 81.18825916 -23.13266893 77.96457476 -27 75 C-30.4390032 71.73735594 -33.51977168 68.26326117 -36.57421875 64.6484375 C-38.28919762 62.66564001 -40.11075741 60.81657941 -42 59 C-45.09179136 60.3761536 -47.19638753 61.95158445 -49.57519531 64.34814453 C-50.25559875 65.02869904 -50.9360022 65.70925354 -51.63702393 66.41043091 C-52.36008728 67.14381683 -53.08315063 67.87720276 -53.828125 68.6328125 C-54.95163361 69.76056595 -54.95163361 69.76056595 -56.09783936 70.91110229 C-58.4866302 73.31107901 -60.86836897 75.71792009 -63.25 78.125 C-64.86933169 79.75436352 -66.48911802 81.38327534 -68.109375 83.01171875 C-72.07820505 87.00258806 -76.04126899 90.99911415 -80 95 C-78.37641304 99.09620634 -75.43319604 101.83447899 -72.35693359 104.87011719 C-71.78118088 105.44616196 -71.20542816 106.02220673 -70.61222839 106.6157074 C-68.71233463 108.51421037 -66.80546009 110.40553522 -64.8984375 112.296875 C-63.57806566 113.61351582 -62.25813536 114.93059957 -60.93862915 116.24810791 C-57.46765724 119.71145037 -53.9907207 123.16874418 -50.51251221 126.62481689 C-46.96305615 130.1537998 -43.41926799 133.6884642 -39.875 137.22265625 C-32.92220537 144.15401308 -25.96309691 151.07899377 -19 158 C-27.10795195 166.56525573 -44.52917292 170.54942409 -56.02929688 171.16113281 C-88.24130997 171.58523464 -113.94963066 164.69938144 -138.0625 142.4375 C-148.5993605 131.32021922 -156.23002551 118.50085882 -161 104 C-161.22155762 103.35724121 -161.44311523 102.71448242 -161.67138672 102.05224609 C-169.42251806 78.75133554 -166.61594105 51.62467935 -155.93066406 29.84863281 C-151.29672131 20.64395955 -145.81529125 12.7272832 -139 5 C-138.48308594 4.38769531 -137.96617187 3.77539062 -137.43359375 3.14453125 C-101.14579815 -36.74362005 -38.74063485 -32.32261851 0 0 Z " fill="#393938" transform="translate(293,153)"/>
<path d="M0 0 C5.96313166 -0.02464574 11.92623395 -0.042834 17.8894043 -0.05493164 C19.91968298 -0.05997278 21.94995802 -0.06680557 23.98022461 -0.07543945 C26.89177347 -0.08751467 29.8032745 -0.09323034 32.71484375 -0.09765625 C33.6283812 -0.10281754 34.54191864 -0.10797882 35.48313904 -0.11329651 C37.65575427 -0.11349168 39.82827296 -0.06211805 42 0 C42.495 0.495 42.495 0.495 43 1 C44.093125 1.0825 45.18625 1.165 46.3125 1.25 C51.38883314 1.80177534 55.72406573 3.80035674 60.36328125 5.84375 C63.02745139 7.05992089 63.02745139 7.05992089 66 8 C66 8.66 66 9.32 66 10 C67.32 10 68.64 10 70 10 C70 10.66 70 11.32 70 12 C70.99 12.33 71.98 12.66 73 13 C72.34 13.33 71.68 13.66 71 14 C68.80574337 13.01731483 66.6974133 11.97404634 64.5625 10.875 C41.43794059 -0.24817039 14.71852347 -1.67288499 -9.74609375 6.31640625 C-12.1447123 7.04389021 -14.53670279 7.54383385 -17 8 C-11.50281844 3.55996874 -7.15634268 1.57061944 0 2 C0 1.34 0 0.68 0 0 Z " fill="#D8B730" transform="translate(204,127)"/>
<path d="M0 0 C5.03422916 5.03422916 5.38930517 12.94752327 5.7890625 19.71484375 C5.86320582 22.02900113 5.86320582 22.02900113 7 24 C7.11137921 26.60795834 7.16412428 29.18827024 7.16796875 31.796875 C7.17129715 32.58209534 7.17462555 33.36731567 7.17805481 34.17633057 C7.18312762 35.84752823 7.18546303 37.51873605 7.18530273 39.18994141 C7.18745573 41.69842367 7.20551238 44.20644136 7.22460938 46.71484375 C7.25724951 56.34332391 6.71604528 65.49903998 5 75 C4.34 75 3.68 75 3 75 C2.93261172 71.1588682 2.9014452 67.63326698 3.4934082 63.82958984 C4.39882671 56.98506227 4.24149983 50.08176137 4.25 43.1875 C4.25200409 42.40298462 4.25400818 41.61846924 4.256073 40.81018066 C4.2633471 29.21615483 3.52489317 18.3554781 1 7 C0.64765576 4.66946163 0.30856914 2.33673718 0 0 Z " fill="#4D4317" transform="translate(382,183)"/>
<path d="M0 0 C1.14952904 -0.0049926 1.14952904 -0.0049926 2.32228088 -0.01008606 C3.94881593 -0.01515045 5.57536137 -0.01749454 7.2019043 -0.01733398 C9.65106238 -0.01949564 12.09975124 -0.03758648 14.54882812 -0.05664062 C32.32666756 -0.12208275 32.32666756 -0.12208275 40.25390625 2.16796875 C41.24390625 3.15796875 41.24390625 3.15796875 42.25390625 4.16796875 C38.41200883 4.23537046 34.88759049 4.26702766 31.08349609 3.67236328 C24.23941099 2.77093017 17.33444713 2.97402239 10.44140625 2.98046875 C9.65921722 2.97974365 8.8770282 2.97901855 8.07113647 2.97827148 C-3.31018643 2.97944139 -14.48824651 3.34851869 -25.74609375 5.16796875 C-23.90110093 2.77204058 -22.97066345 2.20602084 -19.93359375 1.69140625 C-18.35578125 1.61792969 -18.35578125 1.61792969 -16.74609375 1.54296875 C-11.02319099 1.24840758 -5.76650038 0.00873874 0 0 Z " fill="#4C4116" transform="translate(215.74609375,62.83203125)"/>
<path d="M0 0 C2.2462878 0.01071632 4.49177335 0.00003556 6.73803711 -0.01269531 C31.36567148 -0.03828281 31.36567148 -0.03828281 37.81420898 4.26074219 C36.2101357 4.28782785 34.60593049 4.30717702 33.00170898 4.32324219 C31.66172852 4.34064453 31.66172852 4.34064453 30.29467773 4.35839844 C27.81420898 4.26074219 27.81420898 4.26074219 24.81420898 3.26074219 C23.42310059 3.17008451 22.02809171 3.13285367 20.6340332 3.13134766 C19.79661591 3.1281955 18.95919861 3.12504333 18.09640503 3.12179565 C17.19632721 3.12381989 16.29624939 3.12584412 15.36889648 3.12792969 C14.44327911 3.12697296 13.51766174 3.12601624 12.56399536 3.12503052 C10.60882499 3.12435021 8.65365235 3.12619408 6.69848633 3.13037109 C3.69404071 3.13573356 0.68974377 3.13041482 -2.31469727 3.12402344 C-4.21183301 3.12468401 -6.10896867 3.12596473 -8.00610352 3.12792969 C-9.36229294 3.12489334 -9.36229294 3.12489334 -10.74588013 3.12179565 C-14.78652729 2.72625639 -14.78652729 2.72625639 -18.18579102 4.26074219 C-20.04351264 4.17089918 -21.89827087 4.01462358 -23.74829102 3.82324219 C-25.26616211 3.67048828 -25.26616211 3.67048828 -26.81469727 3.51464844 C-27.5971582 3.43085937 -28.37961914 3.34707031 -29.18579102 3.26074219 C-29.18579102 2.93074219 -29.18579102 2.60074219 -29.18579102 2.26074219 C-19.37732488 0.54404065 -9.93169876 -0.05612959 0 0 Z " fill="#DDBC35" transform="translate(223.185791015625,64.7392578125)"/>
<path d="M0 0 C1.65 0 3.3 0 5 0 C5.33 0.66 5.66 1.32 6 2 C8.01810474 2.19530046 10.03623913 2.39031483 12.0546875 2.58203125 C14 3 14 3 16 5.0625 C16.33 5.701875 16.66 6.34125 17 7 C15.02 7.99 15.02 7.99 13 9 C14.32 9.66 15.64 10.32 17 11 C16.67 12.32 16.34 13.64 16 15 C15.16855469 14.14535156 14.33710938 13.29070313 13.48046875 12.41015625 C12.38307952 11.29400823 11.28540855 10.17813718 10.1875 9.0625 C9.64029297 8.49853516 9.09308594 7.93457031 8.52929688 7.35351562 C5.22039606 3.98970438 5.22039606 3.98970438 1 2 C0.773125 2.556875 0.54625 3.11375 0.3125 3.6875 C-1.97604059 7.71969057 -5.17587898 10.45058599 -9 13 C-9.66 11.35 -10.32 9.7 -11 8 C-6.69230769 3.07692308 -6.69230769 3.07692308 -3.1875 2.6875 C-2.465625 2.790625 -1.74375 2.89375 -1 3 C-0.67 2.01 -0.34 1.02 0 0 Z " fill="#413D27" transform="translate(310,25)"/>
<path d="M0 0 C1.32 0.66 2.64 1.32 4 2 C4 2.66 4 3.32 4 4 C4.928125 4.37125 4.928125 4.37125 5.875 4.75 C8.35068687 6.20628639 8.95125002 7.37812506 10 10 C7.525 9.505 7.525 9.505 5 9 C5 9.99 5 10.98 5 12 C4.34 12 3.68 12 3 12 C3 10.68 3 9.36 3 8 C3.66 8 4.32 8 5 8 C4.01 7.01 3.02 6.02 2 5 C1.87625 5.639375 1.7525 6.27875 1.625 6.9375 C1.315625 7.9584375 1.315625 7.9584375 1 9 C0.01 9.495 0.01 9.495 -1 10 C-1.33 9.34 -1.66 8.68 -2 8 C-4.33524782 10.25740623 -6.18705073 12.2805761 -8 15 C-9.65391846 15.39171753 -11.32345271 15.72057545 -13 16 C-14.34666788 16.63930262 -15.68273134 17.30212788 -17 18 C-11.72898586 11.58930713 -5.90871848 5.81409488 0 0 Z " fill="#E5C127" transform="translate(249,211)"/>
<path d="M0 0 C2.17240606 3.25860909 2.23564158 3.82050803 1.8125 7.5 C1.73644531 8.2734375 1.66039063 9.046875 1.58203125 9.84375 C0.89761726 12.37929713 0.06152831 13.40397808 -2 15 C-2.66 15 -3.32 15 -4 15 C-3.6596875 16.299375 -3.6596875 16.299375 -3.3125 17.625 C-2.9367237 21.68338409 -3.94742069 23.55166676 -6 27 C-7.32 26.67 -8.64 26.34 -10 26 C-9.34 25.01 -8.68 24.02 -8 23 C-8 22.01 -8 21.02 -8 20 C-8.33 20.99 -8.66 21.98 -9 23 C-9.99 23.33 -10.98 23.66 -12 24 C-12.33 24.66 -12.66 25.32 -13 26 C-13.99 26 -14.98 26 -16 26 C-16.33 27.32 -16.66 28.64 -17 30 C-18.32 29.67 -19.64 29.34 -21 29 C-11 19 -11 19 -8.3046875 16.3125 C-6.7875686 14.79023832 -5.2894091 13.24880391 -3.8125 11.6875 C-2 10 -2 10 0 10 C0 6.7 0 3.4 0 0 Z " fill="#E8BB21" transform="translate(69,261)"/>
<path d="M0 0 C0.99 0.144375 1.98 0.28875 3 0.4375 C5.78746719 0.84139831 8.57656487 1.1817664 11.375 1.5 C15 2 15 2 16 3 C18.93830968 3.28789037 21.87704227 3.44859401 24.82421875 3.62109375 C28 4 28 4 30.61499023 5.01147461 C34.9449258 6.27594696 38.85246325 6.25014886 43.3359375 6.1953125 C44.21528961 6.1924826 45.09464172 6.18965271 46.00064087 6.18673706 C48.79223594 6.17559712 51.5835029 6.15050411 54.375 6.125 C56.27473493 6.1149622 58.17447492 6.10583775 60.07421875 6.09765625 C64.71627107 6.07567806 69.35808002 6.0411911 74 6 C74 6.33 74 6.66 74 7 C69.25665801 7.92492841 64.62310083 8.18882279 59.8046875 8.23828125 C59.02314301 8.24793915 58.24159851 8.25759705 57.43637085 8.26754761 C54.91586551 8.29231571 52.39561381 8.30493301 49.875 8.3125 C48.59127502 8.31692612 48.59127502 8.31692612 47.28161621 8.32144165 C34.42577185 8.33155557 22.41793125 7.57913514 10 4 C8.8759375 3.69191406 7.751875 3.38382812 6.59375 3.06640625 C4.37985713 2.43082437 2.18512182 1.72837394 0 1 C0 0.67 0 0.34 0 0 Z " fill="#D8B839" transform="translate(176,379)"/>
<path d="M0 0 C1.25446139 3.63601654 0.74545215 6.38332982 0.07421875 10.12890625 C-1.13671533 17.99233941 -1.27087863 25.68102256 -1.20581055 33.62524414 C-1.18732771 35.95925659 -1.18530331 38.29287435 -1.18554688 40.62695312 C-1.18063721 42.13542006 -1.17481131 43.64388435 -1.16796875 45.15234375 C-1.16685593 45.83787827 -1.1657431 46.52341278 -1.16459656 47.22972107 C-1.12235853 51.56623658 -0.6710476 55.71917913 0 60 C0.10751986 62.6793948 0.0470821 65.31632049 0 68 C-6.32230557 58.51654165 -4.0855841 43.8906827 -3.6875 32.9375 C-3.63765491 31.26760817 -3.58882176 29.59768582 -3.54101562 27.92773438 C-2.78075597 2.78075597 -2.78075597 2.78075597 0 0 Z " fill="#5B4C10" transform="translate(67,190)"/>
<path d="M0 0 C1.1055189 0.93590504 2.20935453 1.87379858 3.3125 2.8125 C3.92738281 3.33457031 4.54226563 3.85664062 5.17578125 4.39453125 C6.85424679 5.87172469 8.43882034 7.40039131 10 9 C8.59155282 12.21524305 6.89655214 14.32183868 4.375 16.75 C3.42753906 17.67039062 3.42753906 17.67039062 2.4609375 18.609375 C1.97882813 19.06828125 1.49671875 19.5271875 1 20 C0.34 18.68 -0.32 17.36 -1 16 C-0.01 16 0.98 16 2 16 C2.66 13.69 3.32 11.38 4 9 C2.68 9 1.36 9 0 9 C-1.125 3.375 -1.125 3.375 0 0 Z " fill="#F0C312" transform="translate(340,54)"/>
<path d="M0 0 C0.99 0.66 1.98 1.32 3 2 C3.27989801 4.8649287 3.37171409 7.51049272 3.328125 10.375 C3.32625183 11.21409912 3.32437866 12.05319824 3.32244873 12.91772461 C3.31571493 14.69990998 3.30177422 16.48208025 3.28125 18.26416016 C3.25044083 20.96140651 3.24031097 23.65806483 3.234375 26.35546875 C3.12692352 50.71538407 3.12692352 50.71538407 -2 57 C-3.33397612 54.33204776 -2.48413076 52.94628072 -1.66479492 50.20141602 C2.98444335 34.1731341 1.99543496 16.43009724 0 0 Z " fill="#CBA82F" transform="translate(322,202)"/>
<path d="M0 0 C-1.28117007 3.27381995 -2.65271307 6.47069744 -4.1640625 9.64453125 C-4.76347656 10.90620117 -4.76347656 10.90620117 -5.375 12.19335938 C-5.7875 13.05767578 -6.2 13.92199219 -6.625 14.8125 C-7.04523438 15.69615234 -7.46546875 16.57980469 -7.8984375 17.49023438 C-8.93092761 19.66081018 -9.9648212 21.83070552 -11 24 C-11.33 24 -11.66 24 -12 24 C-12 22.02 -12 20.04 -12 18 C-11.34 18 -10.68 18 -10 18 C-10 16.35 -10 14.7 -10 13 C-10.66 13 -11.32 13 -12 13 C-11.45276317 9.62537285 -10.9451 7.91765 -9 5 C-8.34 5 -7.68 5 -7 5 C-6.67 5.66 -6.34 6.32 -6 7 C-5.566875 5.5459375 -5.566875 5.5459375 -5.125 4.0625 C-3.88188811 0.6784732 -3.56000107 0 0 0 Z " fill="#443E29" transform="translate(87,143)"/>
<path d="M0 0 C1.77155654 0.11429397 3.54226229 0.24183037 5.3125 0.375 C6.79169922 0.47941406 6.79169922 0.47941406 8.30078125 0.5859375 C11 1 11 1 14 3 C20.42121728 4.39642335 27.21369998 4.15297275 33.75 4.125 C34.66910156 4.12886719 35.58820313 4.13273437 36.53515625 4.13671875 C37.42589844 4.13542969 38.31664062 4.13414062 39.234375 4.1328125 C40.03069336 4.13168457 40.82701172 4.13055664 41.64746094 4.12939453 C44.17631844 3.99030212 46.52555125 3.52594611 49 3 C50.43628457 2.93733488 51.8750555 2.91313653 53.3125 2.9375 C55.1378125 2.9684375 55.1378125 2.9684375 57 3 C47.12237547 9.58508302 26.58185238 7.15042022 15.2578125 5.3984375 C10.03129075 4.28569416 5.05690832 2.71547037 0 1 C0 0.67 0 0.34 0 0 Z " fill="#483D16" transform="translate(192,318)"/>
<path d="M0 0 C0 2.96200864 -0.06343771 5.19031313 -1 8 C-3.86537728 9.54885258 -6.8301373 10.29558607 -10 11 C-10 11.99 -10 12.98 -10 14 C-10.99 14 -11.98 14 -13 14 C-13.66 16.97 -14.32 19.94 -15 23 C-15.33 22.34 -15.66 21.68 -16 21 C-17.98 22.65 -19.96 24.3 -22 26 C-18.57761556 15.96824879 -8.7504654 5.95031647 0 0 Z " fill="#4D411D" transform="translate(165,148)"/>
<path d="M0 0 C0.77311523 0.14147461 1.54623047 0.28294922 2.34277344 0.42871094 C10.70503038 1.85116959 18.77730494 2.30525671 27.25 2.25 C28.45140625 2.25773437 29.6528125 2.26546875 30.890625 2.2734375 C36.11763978 2.26197475 41.01551241 2.15889641 46.109375 0.921875 C49.7163205 0.06721723 50.70698699 -0.04519757 54 1 C52.35 1.33 50.7 1.66 49 2 C49 2.66 49 3.32 49 4 C42.98602991 4.07432654 36.97232904 4.12868588 30.95800781 4.16479492 C28.91336406 4.17985288 26.86875245 4.20030357 24.82421875 4.22631836 C21.88012748 4.26283311 18.93646443 4.27975651 15.9921875 4.29296875 C15.0825827 4.30845261 14.17297791 4.32393646 13.23580933 4.33988953 C8.03768042 4.34125843 4.54150375 3.83272212 0 1 C0 0.67 0 0.34 0 0 Z " fill="#D5B332" transform="translate(199,321)"/>
<path d="M0 0 C-0.33 0.99 -0.66 1.98 -1 3 C-1.99 3 -2.98 3 -4 3 C-5.61090549 4.19643335 -5.61090549 4.19643335 -7.13671875 5.84375 C-8.00200195 6.72353516 -8.00200195 6.72353516 -8.88476562 7.62109375 C-9.77711914 8.55115234 -9.77711914 8.55115234 -10.6875 9.5 C-11.29400391 10.12003906 -11.90050781 10.74007813 -12.52539062 11.37890625 C-14.02373743 12.91264707 -15.51276493 14.45548198 -17 16 C-18.0859375 12.2421875 -18.0859375 12.2421875 -17.3125 10.0625 C-15.7147412 7.55173616 -13.90400449 5.28480539 -12 3 C-10.35 3.33 -8.7 3.66 -7 4 C-7 3.01 -7 2.02 -7 1 C-4.53721199 -0.231394 -2.7204945 -0.07159196 0 0 Z " fill="#E9C224" transform="translate(97,319)"/>
<path d="M0 0 C0.66 0 1.32 0 2 0 C2.12375 0.639375 2.2475 1.27875 2.375 1.9375 C2.58125 2.618125 2.7875 3.29875 3 4 C3.66 4.33 4.32 4.66 5 5 C5.33 4.01 5.66 3.02 6 2 C6.99 2.33 7.98 2.66 9 3 C4.38 7.62 -0.24 12.24 -5 17 C-5.66 15.68 -6.32 14.36 -7 13 C-5.25 11 -5.25 11 -3 9 C-1.68 9 -0.36 9 1 9 C1 8.01 1 7.02 1 6 C0.01 6 -0.98 6 -2 6 C-1.125 1.125 -1.125 1.125 0 0 Z " fill="#433D21" transform="translate(239,210)"/>
<path d="M0 0 C4.56030824 3.80475422 8.85089392 7.74969621 13 12 C11.63016497 15.16115776 11.0109362 15.9927092 8 18 C7.67 15.36 7.34 12.72 7 10 C6.34 10.66 5.68 11.32 5 12 C2.75821828 9.75821828 2.66588697 8.99649136 2 6 C1.34490497 3.99617991 0.68025637 1.99541868 0 0 Z " fill="#D7B526" transform="translate(380,341)"/>
<path d="M0 0 C3.26795159 4.11079079 5.01304035 8.40101806 6.9375 13.25 C7.28796387 14.13155762 7.63842773 15.01311523 7.99951172 15.92138672 C10.19349817 21.58009865 12.11300178 27.2462963 13.625 33.125 C13.801521 33.79305664 13.97804199 34.46111328 14.15991211 35.14941406 C14.6015625 37.0078125 14.6015625 37.0078125 15 40 C14.34 40.66 13.68 41.32 13 42 C12.86722656 41.36191406 12.73445313 40.72382813 12.59765625 40.06640625 C12.33275391 38.82697266 12.33275391 38.82697266 12.0625 37.5625 C11.88847656 36.73878906 11.71445312 35.91507813 11.53515625 35.06640625 C11.19247006 33.02338796 11.19247006 33.02338796 10 32 C9.65268264 30.42393803 9.34685523 28.83862922 9.0625 27.25 C8.37186547 23.60988867 7.44975049 20.41726901 6 17 C6 16.01 6 15.02 6 14 C5.34 14 4.68 14 4 14 C3.566875 12.3603125 3.566875 12.3603125 3.125 10.6875 C2.18106796 6.95986155 2.18106796 6.95986155 0 4 C0 2.68 0 1.36 0 0 Z " fill="#D6B432" transform="translate(369,152)"/>
<path d="M0 0 C-0.33 1.65 -0.66 3.3 -1 5 C-1.66 5 -2.32 5 -3 5 C-3 5.66 -3 6.32 -3 7 C-4.98 7 -6.96 7 -9 7 C-9.23847656 7.61746094 -9.47695312 8.23492187 -9.72265625 8.87109375 C-11.32019002 11.53365004 -12.56889589 11.97440879 -15.4375 13.0625 C-18.64627345 14.29420381 -20.71461882 15.40598213 -23 18 C-23.66 17.67 -24.32 17.34 -25 17 C-20.0969718 12.26928269 -14.77284967 8.34211624 -9.125 4.5625 C-8.12521118 3.88888428 -8.12521118 3.88888428 -7.10522461 3.20166016 C-2.25311547 0 -2.25311547 0 0 0 Z " fill="#DEBC27" transform="translate(145,87)"/>
<path d="M0 0 C0.66 0 1.32 0 2 0 C0.11804327 5.15161894 -2.68942369 9.5937098 -5.5390625 14.2578125 C-7.23509834 16.92343458 -7.23509834 16.92343458 -7 20 C-5.06102121 22.67398476 -5.06102121 22.67398476 -3 25 C-4.98 25 -6.96 25 -9 25 C-11.32409827 18.76163095 -11.32409827 18.76163095 -9.75 15.0625 C-9.1725 14.381875 -8.595 13.70125 -8 13 C-7.34 13 -6.68 13 -6 13 C-6 11.35 -6 9.7 -6 8 C-5.34 8 -4.68 8 -4 8 C-4 7.34 -4 6.68 -4 6 C-3.34 6 -2.68 6 -2 6 C-2 5.01 -2 4.02 -2 3 C-1.34 3 -0.68 3 0 3 C0 2.01 0 1.02 0 0 Z " fill="#DEBC2D" transform="translate(367,300)"/>
<path d="M0 0 C0.99 0.33 1.98 0.66 3 1 C3.94921875 3.06640625 3.94921875 3.06640625 4.6875 5.5625 C4.93886719 6.38878906 5.19023437 7.21507812 5.44921875 8.06640625 C5.63097656 8.70449219 5.81273437 9.34257812 6 10 C6.66 10 7.32 10 8 10 C8.48212214 11.56159059 8.96055873 13.12431928 9.4375 14.6875 C9.83775391 15.99267578 9.83775391 15.99267578 10.24609375 17.32421875 C10.96344529 19.87025921 11.517541 22.4003423 12 25 C12.66 25 13.32 25 14 25 C14.33 28.3 14.66 31.6 15 35 C13.27180569 32.40770853 12.29304087 30.38107587 11.23046875 27.5 C10.90111328 26.61723389 10.57175781 25.73446777 10.23242188 24.82495117 C9.88759766 23.89271729 9.54277344 22.9604834 9.1875 22 C6.38698417 14.52494374 3.49797136 7.18093158 0 0 Z " fill="#504318" transform="translate(367,147)"/>
<path d="M0 0 C5.66129431 4.69766975 10.85228904 9.74723372 16 15 C17.65 14.34 19.3 13.68 21 13 C20.67 14.32 20.34 15.64 20 17 C18.02 17 16.04 17 14 17 C14 16.34 14 15.68 14 15 C11.525 14.01 11.525 14.01 9 13 C9 12.34 9 11.68 9 11 C8.0409375 10.8453125 8.0409375 10.8453125 7.0625 10.6875 C6.381875 10.460625 5.70125 10.23375 5 10 C4.67 9.01 4.34 8.02 4 7 C3.01 7.495 3.01 7.495 2 8 C1.855625 7.236875 1.71125 6.47375 1.5625 5.6875 C1.0367406 2.91827092 1.0367406 2.91827092 0 0 Z " fill="#443B1D" transform="translate(338,376)"/>
<path d="M0 0 C1.65 1.65 3.3 3.3 5 5 C3.06891037 6.03290841 1.129882 7.05098672 -0.8125 8.0625 C-1.89144531 8.63097656 -2.97039062 9.19945312 -4.08203125 9.78515625 C-7 11 -7 11 -10 10 C-9.34 10 -8.68 10 -8 10 C-8.20625 9.401875 -8.4125 8.80375 -8.625 8.1875 C-9 6 -9 6 -7 3 C-6.401875 3.350625 -5.80375 3.70125 -5.1875 4.0625 C-2.89186786 5.33304698 -2.89186786 5.33304698 0 4 C0 2.68 0 1.36 0 0 Z " fill="#3F3C2A" transform="translate(269,307)"/>
<path d="M0 0 C0.66 0.99 1.32 1.98 2 3 C-2.75 6 -2.75 6 -5 6 C-6.20628008 8.33214148 -7.1654738 10.49642139 -8 13 C-9.051875 13.3403125 -9.051875 13.3403125 -10.125 13.6875 C-13.91025713 15.41555217 -15.71985169 17.98632329 -18.25390625 21.22265625 C-20.1771126 23.1802824 -21.32277663 23.61921331 -24 24 C-23.278125 23.29875 -22.55625 22.5975 -21.8125 21.875 C-19.90843614 19.98163313 -18.26820864 18.09933371 -16.5625 16 C-13.93248768 12.92096119 -11.1374966 10.54921599 -8 8 C-6.31384218 6.35305515 -4.64429829 4.68873879 -3 3 C-2 2 -1 1 0 0 Z " fill="#4C431C" transform="translate(392,355)"/>
<path d="M0 0 C0.99 0.66 1.98 1.32 3 2 C3.33 1.67 3.66 1.34 4 1 C5.66617115 0.95936168 7.33388095 0.957279 9 1 C6.03352255 4.19249477 2.95036364 6.4592987 -0.75 8.75 C-1.73484375 9.36359375 -2.7196875 9.9771875 -3.734375 10.609375 C-4.48203125 11.06828125 -5.2296875 11.5271875 -6 12 C-5.30593865 7.6187377 -4.23480711 6.03263167 -1 3 C-0.67 2.01 -0.34 1.02 0 0 Z " fill="#443E25" transform="translate(128,90)"/>
<path d="M0 0 C2 2 2 2 2.125 4.625 C2.08375 5.40875 2.0425 6.1925 2 7 C2.66 7 3.32 7 4 7 C4.639375 7.804375 5.27875 8.60875 5.9375 9.4375 C7.81035932 12.23720732 7.81035932 12.23720732 11 13 C11.33 14.65 11.66 16.3 12 18 C8.21556833 14.83343473 4.70359192 11.70566215 1.375 8.0625 C-0.27107148 6.28641633 -0.27107148 6.28641633 -2 5 C-4.86920862 4.86789525 -4.86920862 4.86789525 -7 6 C-7.33 5.01 -7.66 4.02 -8 3 C-5.36 2.67 -2.72 2.34 0 2 C0 1.34 0 0.68 0 0 Z " fill="#DBBB33" transform="translate(323,354)"/>
<path d="M0 0 C3.67882073 3.28466137 5.75150101 6.66360908 8 11 C8 11.66 8 12.32 8 13 C6.35 12.67 4.7 12.34 3 12 C2.67 12.99 2.34 13.98 2 15 C0.4375 13.75 0.4375 13.75 -1 12 C-0.6875 9.8125 -0.6875 9.8125 0 8 C0.66 8 1.32 8 2 8 C1.34 5.36 0.68 2.72 0 0 Z " fill="#423C2A" transform="translate(305,168)"/>
<path d="M0 0 C2.3646241 3.54693615 3.34916946 6.76008511 3 11 C0.8125 13.75 0.8125 13.75 -2 16 C-2.763125 16.763125 -3.52625 17.52625 -4.3125 18.3125 C-4.869375 18.869375 -5.42625 19.42625 -6 20 C-6.6875 18.3125 -6.6875 18.3125 -7 16 C-5.5625 13.25 -5.5625 13.25 -4 11 C-2.35 11.33 -0.7 11.66 1 12 C0.835 11.505 0.67 11.01 0.5 10.5 C-0.20688818 6.96555911 -0.06005155 3.60309299 0 0 Z " fill="#403C28" transform="translate(67,258)"/>
<path d="M0 0 C0.66 0.33 1.32 0.66 2 1 C-0.00844092 5.92980953 -3.64105074 9.09403383 -8 12 C-8.66 10.35 -9.32 8.7 -10 7 C-5.69230769 2.07692308 -5.69230769 2.07692308 -2.1875 1.6875 C-1.465625 1.790625 -0.74375 1.89375 0 2 C0 1.34 0 0.68 0 0 Z " fill="#484227" transform="translate(293,42)"/>
<path d="M0 0 C1 2 1 2 0.5 4.4375 C-0.23853737 7.10448331 -0.23853737 7.10448331 1 10 C1 10.99 1 11.98 1 13 C1.62599617 14.68236471 2.28752268 16.3523962 3 18 C1.87105124 17.06725891 0.74699124 16.12859878 -0.375 15.1875 C-1.00148438 14.66542969 -1.62796875 14.14335937 -2.2734375 13.60546875 C-4 12 -4 12 -6 9 C-4.02 6.03 -2.04 3.06 0 0 Z " fill="#3F372C" transform="translate(364,309)"/>
<path d="M0 0 C1.16777492 3.53690297 0.89138151 6.40632688 0.44140625 10.078125 C0.30283203 11.23828125 0.16425781 12.3984375 0.02148438 13.59375 C-0.12998047 14.8003125 -0.28144531 16.006875 -0.4375 17.25 C-0.58509766 18.47203125 -0.73269531 19.6940625 -0.88476562 20.953125 C-1.25004194 23.96960038 -1.62202781 26.98509354 -2 30 C-2.33 30 -2.66 30 -3 30 C-3.24242083 8.77470979 -3.24242083 8.77470979 -2 2 C-1.34 1.34 -0.68 0.68 0 0 Z " fill="#4E4213" transform="translate(67,190)"/>
<path d="M0 0 C0.33 0.66 0.66 1.32 1 2 C0.0625 4.625 0.0625 4.625 -1 7 C-0.67 6.67 -0.34 6.34 0 6 C0.33 6.99 0.66 7.98 1 9 C-0.6875 12.1875 -0.6875 12.1875 -3 15 C-4.32 15 -5.64 15 -7 15 C-5.45454854 9.52067211 -2.84456788 4.88570819 0 0 Z " fill="#443F24" transform="translate(142,174)"/>
<path d="M0 0 C0.33 0.66 0.66 1.32 1 2 C-1.45614035 7 -1.45614035 7 -3 9 C-3.99 9.33 -4.98 9.66 -6 10 C-6.33 10.66 -6.66 11.32 -7 12 C-7.99 12 -8.98 12 -10 12 C-10.33 13.32 -10.66 14.64 -11 16 C-12.32 15.67 -13.64 15.34 -15 15 C-10 10 -5 5 0 0 Z " fill="#D4B628" transform="translate(63,275)"/>
<path d="M0 0 C-2.90628194 1.53151921 -5.7997289 2.68568353 -8.9140625 3.7265625 C-9.83960938 4.0359375 -10.76515625 4.3453125 -11.71875 4.6640625 C-13.15734375 5.13972656 -13.15734375 5.13972656 -14.625 5.625 C-15.59179688 5.94984375 -16.55859375 6.2746875 -17.5546875 6.609375 C-18.93914062 7.06957031 -18.93914062 7.06957031 -20.3515625 7.5390625 C-21.19541504 7.81959473 -22.03926758 8.10012695 -22.90869141 8.38916016 C-25 9 -25 9 -27 9 C-27 8.01 -27 7.02 -27 6 C-26.45472656 5.89042969 -25.90945312 5.78085938 -25.34765625 5.66796875 C-19.74151857 4.48924237 -14.40121396 2.89801696 -9 1 C-5.8035914 -0.06546953 -3.34252724 -0.07427838 0 0 Z " fill="#514316" transform="translate(190,68)"/>
<path d="M0 0 C2.97 0.495 2.97 0.495 6 1 C5.3125 2.9375 5.3125 2.9375 4 5 C-0.53412897 6.86699428 -4.49156565 5.2990404 -9 4 C-9 3.67 -9 3.34 -9 3 C-5.92382812 2.70703125 -5.92382812 2.70703125 -2.84765625 2.4140625 C-2.23792969 2.27742188 -1.62820313 2.14078125 -1 2 C-0.67 1.34 -0.34 0.68 0 0 Z " fill="#484121" transform="translate(267,64)"/>
<path d="M0 0 C0.99 0.66 1.98 1.32 3 2 C1.59155282 5.21524305 -0.10344786 7.32183868 -2.625 9.75 C-3.57246094 10.67039062 -3.57246094 10.67039062 -4.5390625 11.609375 C-5.02117187 12.06828125 -5.50328125 12.5271875 -6 13 C-6.66 11.68 -7.32 10.36 -8 9 C-7.01 9 -6.02 9 -5 9 C-4.71125 8.21625 -4.4225 7.4325 -4.125 6.625 C-3 4 -3 4 -1 2 C-1 2.66 -1 3.32 -1 4 C-0.34 4 0.32 4 1 4 C0.67 2.68 0.34 1.36 0 0 Z " fill="#E8C22A" transform="translate(347,61)"/>
<path d="M0 0 C1.32 0.33 2.64 0.66 4 1 C1.03 3.97 -1.94 6.94 -5 10 C-6.32 9.34 -7.64 8.68 -9 8 C-7.68 7.67 -6.36 7.34 -5 7 C-5.33 6.01 -5.66 5.02 -6 4 C-4.125 2.9375 -4.125 2.9375 -2 2 C-1.34 2.33 -0.68 2.66 0 3 C0 2.01 0 1.02 0 0 Z " fill="#E6C12D" transform="translate(70,340)"/>
<path d="M0 0 C2.30587304 2.30587304 2.68287595 3.77098633 3.5625 6.875 C3.81128906 7.73867188 4.06007812 8.60234375 4.31640625 9.4921875 C4.90611487 11.65557569 5.46810836 13.8217771 6 16 C6.66 16 7.32 16 8 16 C8.66 18.31 9.32 20.62 10 23 C9.34 23.33 8.68 23.66 8 24 C6.84389976 21.31651929 5.70003214 18.62884316 4.5625 15.9375 C4.23701172 15.18533203 3.91152344 14.43316406 3.57617188 13.65820312 C1.64333669 9.05526572 0.46906824 4.97476601 0 0 Z " fill="#504316" transform="translate(131,250)"/>
<path d="M0 0 C0.66 0.33 1.32 0.66 2 1 C0.63317439 5.10047683 -1.25983367 5.9534939 -5 8 C-8.375 8.25 -8.375 8.25 -11 8 C-7.71644638 4.32241995 -4.37221763 2.18610882 0 0 Z " fill="#483E22" transform="translate(179,139)"/>
<path d="M0 0 C1.0725 0.2475 2.145 0.495 3.25 0.75 C0.69006232 3.30993768 -1.96038188 4.36847135 -5.25 5.875 C-6.4153125 6.41382812 -7.580625 6.95265625 -8.78125 7.5078125 C-11.75 8.75 -11.75 8.75 -13.75 8.75 C-13.42 7.76 -13.09 6.77 -12.75 5.75 C-11.0864521 5.07558869 -9.41933058 4.4099679 -7.75 3.75 C-6.821875 2.6671875 -6.821875 2.6671875 -5.875 1.5625 C-3.75 -0.25 -3.75 -0.25 0 0 Z " fill="#494220" transform="translate(159.75,76.25)"/>
<path d="M0 0 C0.33 0.66 0.66 1.32 1 2 C2.65 1.67 4.3 1.34 6 1 C3.34521986 4.16860855 0.16000194 5.50301588 -3.5625 7.1875 C-5.29693359 7.98220703 -5.29693359 7.98220703 -7.06640625 8.79296875 C-10 10 -10 10 -12 10 C-12 9.34 -12 8.68 -12 8 C-11.01 8 -10.02 8 -9 8 C-9 7.34 -9 6.68 -9 6 C-7.88625 5.7525 -6.7725 5.505 -5.625 5.25 C-1.95384802 4.38994661 -1.95384802 4.38994661 -0.5625 1.875 C-0.376875 1.25625 -0.19125 0.6375 0 0 Z " fill="#DABB2C" transform="translate(299,365)"/>
<path d="M0 0 C0 2.33333333 0 4.66666667 0 7 C0.57363281 7.2578125 1.14726562 7.515625 1.73828125 7.78125 C4.20509293 9.1105164 6.09168096 10.64404017 8.1875 12.5 C8.88230469 13.1084375 9.57710938 13.716875 10.29296875 14.34375 C12 16 12 16 13 18 C6.28595525 14.9644742 1.07359894 9.23214891 -4 4 C-2.68 2.68 -1.36 1.36 0 0 Z " fill="#584813" transform="translate(324,90)"/>
<path d="M0 0 C0 2.62113708 -0.31292445 4.50935112 -1 7 C-2.32 7 -3.64 7 -5 7 C-5 7.66 -5 8.32 -5 9 C-7.75 9.3125 -7.75 9.3125 -11 9 C-13.375 6.5 -13.375 6.5 -15 4 C-14.67 3.34 -14.34 2.68 -14 2 C-12.35 3.65 -10.7 5.3 -9 7 C-5.18315774 5.44499019 -2.80804268 2.96404505 0 0 Z " fill="#483F18" transform="translate(72,342)"/>
<path d="M0 0 C0.99 0.33 1.98 0.66 3 1 C3.33 1.99 3.66 2.98 4 4 C4.99 4 5.98 4 7 4 C7.33 6.31 7.66 8.62 8 11 C0.51708428 4.84965831 0.51708428 4.84965831 -2 1 C-1.34 0.67 -0.68 0.34 0 0 Z " fill="#403825" transform="translate(379,336)"/>
<path d="M0 0 C4.9240432 4.7652031 9.44259642 9.88657333 14 15 C11 15 11 15 9.5 13.6875 C8.5 12.5625 7.5 11.4375 6.5 10.3125 C4.95590371 8.6707477 4.95590371 8.6707477 2 9 C1.34 6.03 0.68 3.06 0 0 Z " fill="#DCBC2C" transform="translate(145,283)"/>
<path d="M0 0 C0.66 0 1.32 0 2 0 C0 7.33333333 -2 14.66666667 -4 22 C-4.33 22 -4.66 22 -5 22 C-5 18.7 -5 15.4 -5 12 C-4.34 12 -3.68 12 -3 12 C-2.86722656 11.38511719 -2.73445313 10.77023438 -2.59765625 10.13671875 C-2.42105469 9.32847656 -2.24445313 8.52023438 -2.0625 7.6875 C-1.88847656 6.88699219 -1.71445313 6.08648437 -1.53515625 5.26171875 C-1 3 -1 3 0 0 Z " fill="#4D3F19" transform="translate(73,168)"/>
<path d="M0 0 C1 2 1 2 0.3125 4.875 C-1.07590136 8.18071751 -2.42364998 9.57519998 -5 12 C-6.36821051 13.97630407 -7.70951192 15.97209016 -9 18 C-9.33 17.34 -9.66 16.68 -10 16 C-8.61339541 13.40085394 -7.18124108 10.93165423 -5.625 8.4375 C-5.19960937 7.73947266 -4.77421875 7.04144531 -4.3359375 6.32226562 C-1.1896734 1.1896734 -1.1896734 1.1896734 0 0 Z " fill="#D8BB2C" transform="translate(93,134)"/>
<path d="M0 0 C1.32 0.33 2.64 0.66 4 1 C4 1.66 4 2.32 4 3 C4.66 3.33 5.32 3.66 6 4 C6 4.99 6 5.98 6 7 C6.66 7 7.32 7 8 7 C9.32421875 8.609375 9.32421875 8.609375 10.6875 10.75 C11.14511719 11.44609375 11.60273438 12.1421875 12.07421875 12.859375 C13.16906025 15.39090725 12.9435441 16.46100862 12 19 C11.63648438 18.38253906 11.27296875 17.76507813 10.8984375 17.12890625 C7.43608802 11.29617904 3.81844451 5.60580152 0 0 Z " fill="#4F4217" transform="translate(353,126)"/>
<path d="M0 0 C1.77155654 0.11429397 3.54226229 0.24183037 5.3125 0.375 C6.79169922 0.47941406 6.79169922 0.47941406 8.30078125 0.5859375 C11 1 11 1 14 3 C16.34923778 3.36268934 18.66781915 3.50277147 21.0390625 3.65625 C22.00972656 3.82640625 22.00972656 3.82640625 23 4 C23.33 4.66 23.66 5.32 24 6 C15.50569131 5.65954675 8.026086 3.74341572 0 1 C0 0.67 0 0.34 0 0 Z " fill="#554A16" transform="translate(192,318)"/>
<path d="M0 0 C0.33 2.97 0.66 5.94 1 9 C-5.875 3.25 -5.875 3.25 -7 1 C-4.53721199 -0.231394 -2.7204945 -0.07159196 0 0 Z " fill="#3E392A" transform="translate(300,252)"/>
<path d="M0 0 C1.98 0 3.96 0 6 0 C4.02 2.31 2.04 4.62 0 7 C0.66 8.32 1.32 9.64 2 11 C2.33 11.66 2.66 12.32 3 13 C-0.875 11.125 -0.875 11.125 -2 10 C-2.04080783 8.00041636 -2.04254356 5.99954746 -2 4 C-1.34 4 -0.68 4 0 4 C0 2.68 0 1.36 0 0 Z " fill="#4E3F1E" transform="translate(213,241)"/>
<path d="M0 0 C0.66 0 1.32 0 2 0 C1.67 2.97 1.34 5.94 1 9 C1.66 9.33 2.32 9.66 3 10 C2.01 10 1.02 10 0 10 C-1.71140469 8.03814584 -3.37873325 6.03697617 -5 4 C-5.66 3.67 -6.32 3.34 -7 3 C-7 2.34 -7 1.68 -7 1 C-5.02 1.66 -3.04 2.32 -1 3 C-0.67 2.01 -0.34 1.02 0 0 Z " fill="#494223" transform="translate(260,212)"/>
<path d="M0 0 C1.1446875 0.2475 1.1446875 0.2475 2.3125 0.5 C5.03596236 1.09145396 5.03596236 1.09145396 8 1 C9 2 9 2 9.0625 5.5625 C9.041875 6.696875 9.02125 7.83125 9 9 C7.87105124 8.06725891 6.74699124 7.12859878 5.625 6.1875 C4.99851562 5.66542969 4.37203125 5.14335937 3.7265625 4.60546875 C2 3 2 3 0 0 Z " fill="#E5BE27" transform="translate(341,378)"/>
<path d="M0 0 C2.42348595 0.08655307 3.68385658 0.6766715 5.375 2.40625 C6.62094897 3.90705217 7.81389216 5.45147031 9 7 C7.35 7 5.7 7 4 7 C3.67 7.66 3.34 8.32 3 9 C2.34 9 1.68 9 1 9 C1.57584432 6.61435923 2.22227595 4.33317216 3 2 C1.68 1.67 0.36 1.34 -1 1 C-0.67 0.67 -0.34 0.34 0 0 Z " fill="#453A20" transform="translate(318,358)"/>
<path d="M0 0 C1.1484375 3.71875 1.1484375 3.71875 -0.1875 6.25 C-2 8 -2 8 -6 8 C-6 9.65 -6 11.3 -6 13 C-6.99 12.34 -7.98 11.68 -9 11 C-7.59155282 7.78475695 -5.89655214 5.67816132 -3.375 3.25 C-2.74335938 2.63640625 -2.11171875 2.0228125 -1.4609375 1.390625 C-0.73777344 0.70226562 -0.73777344 0.70226562 0 0 Z " fill="#E4C12E" transform="translate(221,239)"/>
<path d="M0 0 C0.33 0.66 0.66 1.32 1 2 C0.54625 2.433125 0.0925 2.86625 -0.375 3.3125 C-2.20024334 5.10798342 -2.20024334 5.10798342 -4 8 C-5.65391846 8.39171753 -7.32345271 8.72057545 -9 9 C-10.34666788 9.63930262 -11.68273134 10.30212788 -13 11 C-9.15619099 5.98756041 -5.6626826 2.8313413 0 0 Z " fill="#EAC422" transform="translate(245,218)"/>
<path d="M0 0 C0.33 0.99 0.66 1.98 1 3 C-3.67298762 7.89551084 -3.67298762 7.89551084 -7.48046875 8.1953125 C-8.37378906 8.17210938 -9.26710938 8.14890625 -10.1875 8.125 C-11.08855469 8.10695313 -11.98960937 8.08890625 -12.91796875 8.0703125 C-13.60503906 8.04710938 -14.29210937 8.02390625 -15 8 C-15 7.34 -15 6.68 -15 6 C-13.824375 6.12375 -12.64875 6.2475 -11.4375 6.375 C-6.72483755 6.42540281 -4.54172757 4.48666587 -1.25 1.3125 C-0.63125 0.6628125 -0.63125 0.6628125 0 0 Z " fill="#DCB62B" transform="translate(276,63)"/>
<path d="M0 0 C0.99 0.66 1.98 1.32 3 2 C3.99 2 4.98 2 6 2 C5.67 4.31 5.34 6.62 5 9 C3.85073734 8.04578192 2.70569459 7.08647955 1.5625 6.125 C0.92441406 5.59132813 0.28632813 5.05765625 -0.37109375 4.5078125 C-2 3 -2 3 -3 1 C-2.01 0.67 -1.02 0.34 0 0 Z " fill="#E3BC23" transform="translate(234,267)"/>
<path d="M0 0 C4.20460379 2.58009778 7.06292161 5.05013596 10 9 C10.98230498 10.0173873 11.97469597 11.02596117 13 12 C9.75728494 11.4409112 8.06942576 10.5867822 6 8 C6 7.34 6 6.68 6 6 C4.35 6 2.7 6 1 6 C0.67 4.02 0.34 2.04 0 0 Z " fill="#D6B828" transform="translate(259,221)"/>
<path d="M0 0 C0.33 1.32 0.66 2.64 1 4 C-1.57740382 7.09288459 -4.14170948 9.66955499 -8 11 C-8.66 10.67 -9.32 10.34 -10 10 C-6.7 6.7 -3.4 3.4 0 0 Z " fill="#48411C" transform="translate(341,73)"/>
<path d="M0 0 C-1.11799986 1.33920838 -2.24461897 2.67122556 -3.375 4 C-4.00148438 4.7425 -4.62796875 5.485 -5.2734375 6.25 C-6.12808594 7.11625 -6.12808594 7.11625 -7 8 C-7.66 8 -8.32 8 -9 8 C-9.33 6.68 -9.66 5.36 -10 4 C-8.68 4 -7.36 4 -6 4 C-6 2.68 -6 1.36 -6 0 C-3 -1 -3 -1 0 0 Z " fill="#D8B923" transform="translate(378,369)"/>
<path d="M0 0 C4.82675589 2.41337795 7.69984002 5.86062408 11 10 C6.52329102 9.13909443 4.48852282 8.60125885 1.5625 5 C0 2 0 2 0 0 Z " fill="#50421F" transform="translate(288,150)"/>
<path d="M0 0 C0 3.20395416 -0.74335022 5.09399739 -2 8 C-1.34 8.33 -0.68 8.66 0 9 C-0.639375 9.12375 -1.27875 9.2475 -1.9375 9.375 C-2.618125 9.58125 -3.29875 9.7875 -4 10 C-4.33 10.66 -4.66 11.32 -5 12 C-7.0625 12.625 -7.0625 12.625 -9 13 C-7.50923566 9.7173068 -5.61379679 7.06922559 -3.375 4.25 C-2.74335937 3.45078125 -2.11171875 2.6515625 -1.4609375 1.828125 C-0.97882813 1.22484375 -0.49671875 0.6215625 0 0 Z " fill="#DEB929" transform="translate(103,121)"/>
<path d="M0 0 C5.58490476 4.44512827 9.79211991 9.24454091 14 15 C13.01 15.495 13.01 15.495 12 16 C10.99406757 14.8803014 9.9954151 13.7540588 9 12.625 C8.1646875 11.68527344 8.1646875 11.68527344 7.3125 10.7265625 C6 9 6 9 6 7 C5.34 7 4.68 7 4 7 C4 6.34 4 5.68 4 5 C3.01 5.33 2.02 5.66 1 6 C0.67 4.02 0.34 2.04 0 0 Z " fill="#D7B632" transform="translate(339,111)"/>
<path d="M0 0 C2.97 0.495 2.97 0.495 6 1 C5.67 2.65 5.34 4.3 5 6 C5.66 6.33 6.32 6.66 7 7 C6.67 7.99 6.34 8.98 6 10 C3.69 7.69 1.38 5.38 -1 3 C-0.67 2.01 -0.34 1.02 0 0 Z " fill="#3E3B22" transform="translate(338,106)"/>
<path d="M0 0 C0.66 0.33 1.32 0.66 2 1 C2 2.65 2 4.3 2 6 C2.99 6 3.98 6 5 6 C5.33 7.98 5.66 9.96 6 12 C-1.48291572 5.84965831 -1.48291572 5.84965831 -4 2 C-2.68 2 -1.36 2 0 2 C0 1.34 0 0.68 0 0 Z " fill="#E7C02C" transform="translate(48,328)"/>
<path d="M0 0 C4.62 2.31 9.24 4.62 14 7 C13.01 7.66 12.02 8.32 11 9 C7.535 7.02 7.535 7.02 4 5 C4 4.34 4 3.68 4 3 C2.68 2.67 1.36 2.34 0 2 C0 1.34 0 0.68 0 0 Z " fill="#4D431C" transform="translate(266,136)"/>
<path d="M0 0 C1.65 0 3.3 0 5 0 C5.33 1.65 5.66 3.3 6 5 C6.99 5.33 7.98 5.66 9 6 C8.34 7.32 7.68 8.64 7 10 C5.83043409 8.52312468 4.66441854 7.04343707 3.5 5.5625 C2.8503125 4.73878906 2.200625 3.91507812 1.53125 3.06640625 C0 1 0 1 0 0 Z " fill="#4A3E25" transform="translate(345,116)"/>
<path d="M0 0 C0 3.70411834 -0.75301769 5.078923 -3 8 C-6.1875 9.3125 -6.1875 9.3125 -9 10 C-6.43571997 5.82117329 -3.98069267 2.87494471 0 0 Z " fill="#DBBD24" transform="translate(302,37)"/>
<path d="M0 0 C0.99 0.495 0.99 0.495 2 1 C2 1.66 2 2.32 2 3 C2.928125 3.37125 2.928125 3.37125 3.875 3.75 C6.35068687 5.20628639 6.95125002 6.37812506 8 9 C6.35 8.67 4.7 8.34 3 8 C3 8.99 3 9.98 3 11 C2.34 11 1.68 11 1 11 C1 9.68 1 8.36 1 7 C1.66 7 2.32 7 3 7 C2.505 6.21625 2.01 5.4325 1.5 4.625 C0 2 0 2 0 0 Z " fill="#D7B724" transform="translate(251,212)"/>
<path d="M0 0 C1.485 0.99 1.485 0.99 3 2 C3.2208564 4.95064148 3.28060989 7.68368231 3.1875 10.625 C3.17396484 11.42679688 3.16042969 12.22859375 3.14648438 13.0546875 C3.11109051 15.03674378 3.05728234 17.01845551 3 19 C2.67 19 2.34 19 2 19 C1.34 12.73 0.68 6.46 0 0 Z " fill="#DCB831" transform="translate(322,202)"/>
<path d="M0 0 C2 1 2 1 2 1 Z M-1 1 C-0.34 1.33 0.32 1.66 1 2 C0.6875 4.875 0.6875 4.875 0 8 C-0.99 8.66 -1.98 9.32 -3 10 C-3.6875 7.1875 -3.6875 7.1875 -4 4 C-2.5625 2.125 -2.5625 2.125 -1 1 Z " fill="#E8BD1C" transform="translate(368,372)"/>
<path d="M0 0 C2.125 1.0625 2.125 1.0625 4 3 C4.75 6.1875 4.75 6.1875 5 9 C3.85073734 8.04578192 2.70569459 7.08647955 1.5625 6.125 C0.92441406 5.59132813 0.28632813 5.05765625 -0.37109375 4.5078125 C-2 3 -2 3 -3 1 C-2.01 0.67 -1.02 0.34 0 0 Z " fill="#E0BA25" transform="translate(218,251)"/>
<path d="M0 0 C0.99 0 1.98 0 3 0 C3.33 2.97 3.66 5.94 4 9 C2.02 7.35 0.04 5.7 -2 4 C-1.34 2.68 -0.68 1.36 0 0 Z " fill="#3E382B" transform="translate(281,236)"/>
<path d="M0 0 C0.66 0.33 1.32 0.66 2 1 C0.38405168 3.04119788 -1.2856382 5.04072937 -3 7 C-3.66 7 -4.32 7 -5 7 C-5 6.34 -5 5.68 -5 5 C-6.32 4.67 -7.64 4.34 -9 4 C-7.54618103 3.30300448 -6.08677047 2.61766134 -4.625 1.9375 C-3.40683594 1.36322266 -3.40683594 1.36322266 -2.1640625 0.77734375 C-1.44992188 0.52082031 -0.73578125 0.26429688 0 0 Z " fill="#453F1F" transform="translate(190,134)"/>
<path d="M0 0 C0.66 0.33 1.32 0.66 2 1 C1.67 1.66 1.34 2.32 1 3 C-0.32 3 -1.64 3 -3 3 C-3 3.99 -3 4.98 -3 6 C-5.64 6.33 -8.28 6.66 -11 7 C-8.84658594 4.65082102 -6.78332063 3.17556996 -3.9375 1.75 C-3.24527344 1.39421875 -2.55304688 1.0384375 -1.83984375 0.671875 C-1.23269531 0.45015625 -0.62554687 0.2284375 0 0 Z " fill="#DBBB2D" transform="translate(156,80)"/>
<path d="M0 0 C0.99 0.33 1.98 0.66 3 1 C2.02526874 2.66926454 1.04510211 4.33535642 0.0625 6 C-0.75541016 7.3921875 -0.75541016 7.3921875 -1.58984375 8.8125 C-2.05519531 9.534375 -2.52054688 10.25625 -3 11 C-3.33 11 -3.66 11 -4 11 C-4.36630156 7.06225823 -4.30233203 5.43460229 -2 2.125 C-1.34 1.42375 -0.68 0.7225 0 0 Z " fill="#E0BA2B" transform="translate(143,168)"/>
<path d="M0 0 C0.66 0 1.32 0 2 0 C2 0.99 2 1.98 2 3 C1.01 3.495 1.01 3.495 0 4 C-0.33 4.99 -0.66 5.98 -1 7 C-2.98 7.33 -4.96 7.66 -7 8 C-6.02133662 6.85373678 -5.04205413 5.70800212 -4.0625 4.5625 C-3.51722656 3.92441406 -2.97195312 3.28632812 -2.41015625 2.62890625 C-1.63204305 1.73008851 -0.84063472 0.84063472 0 0 Z " fill="#DBB82A" transform="translate(116,107)"/>
<path d="M0 0 C0.68707555 2.49064888 1 4.37886292 1 7 C0.01 7.495 0.01 7.495 -1 8 C-1.33 7.34 -1.66 6.68 -2 6 C-3.65 6.66 -5.3 7.32 -7 8 C-6.02133662 6.85373678 -5.04205413 5.70800212 -4.0625 4.5625 C-3.51722656 3.92441406 -2.97195312 3.28632813 -2.41015625 2.62890625 C-1.63204305 1.73008851 -0.84063472 0.84063472 0 0 Z " fill="#D0B025" transform="translate(47,291)"/>
<path d="M0 0 C1.37140038 0.01987537 2.7426453 0.05555764 4.11328125 0.10546875 C4.81517578 0.11900391 5.51707031 0.13253906 6.24023438 0.14648438 C7.96907954 0.18176693 9.6975289 0.23557292 11.42578125 0.29296875 C11.42578125 0.62296875 11.42578125 0.95296875 11.42578125 1.29296875 C2.51578125 2.28296875 2.51578125 2.28296875 -6.57421875 3.29296875 C-3.57421875 0.29296875 -3.57421875 0.29296875 0 0 Z " fill="#4B3F17" transform="translate(196.57421875,64.70703125)"/>
<path d="M0 0 C0.66 0.33 1.32 0.66 2 1 C1.01 1.33 0.02 1.66 -1 2 C-1 2.66 -1 3.32 -1 4 C-3.47346304 6.47346304 -4.70761168 6.98313144 -8.25 7.1875 C-9.1575 7.125625 -10.065 7.06375 -11 7 C-8.84658594 4.65082102 -6.78332063 3.17556996 -3.9375 1.75 C-3.24527344 1.39421875 -2.55304688 1.0384375 -1.83984375 0.671875 C-1.23269531 0.45015625 -0.62554687 0.2284375 0 0 Z " fill="#4E4319" transform="translate(307,365)"/>
<path d="M0 0 C1.27310312 0.93441535 2.543388 1.87267111 3.8125 2.8125 C4.52019531 3.33457031 5.22789063 3.85664063 5.95703125 4.39453125 C7.78531393 5.83128877 9.39896688 7.31815763 11 9 C9.68 9.33 8.36 9.66 7 10 C6.7525 9.195625 6.505 8.39125 6.25 7.5625 C5.27761141 4.828919 5.27761141 4.828919 2.875 4.1875 C2.25625 4.125625 1.6375 4.06375 1 4 C0.67 2.68 0.34 1.36 0 0 Z " fill="#4A4218" transform="translate(120,348)"/>
<path d="M0 0 C1.98 0 3.96 0 6 0 C7.125 4.75 7.125 4.75 6 7 C4.02 4.69 2.04 2.38 0 0 Z " fill="#E6C028" transform="translate(54,340)"/>
<path d="M0 0 C0.66 0 1.32 0 2 0 C2 1.32 2 2.64 2 4 C2.66 4 3.32 4 4 4 C4 4.99 4 5.98 4 7 C3.01 7 2.02 7 1 7 C1 6.34 1 5.68 1 5 C-1.31 5.33 -3.62 5.66 -6 6 C-5.38125 5.54625 -4.7625 5.0925 -4.125 4.625 C-1.94080167 3.02891081 -1.94080167 3.02891081 0 1 C0 0.67 0 0.34 0 0 Z " fill="#DEB927" transform="translate(273,310)"/>
<path d="M0 0 C2 2 2 2 2 6 C0.88625 5.814375 -0.2275 5.62875 -1.375 5.4375 C-4.82568861 4.68319343 -4.82568861 4.68319343 -7 6 C-7.33 5.01 -7.66 4.02 -8 3 C-5.36 2.67 -2.72 2.34 0 2 C0 1.34 0 0.68 0 0 Z " fill="#E0BE22" transform="translate(323,354)"/>
<path d="M0 0 C0.33 0.66 0.66 1.32 1 2 C0.67 2.99 0.34 3.98 0 5 C-0.66 5 -1.32 5 -2 5 C-0.68 6.65 0.64 8.3 2 10 C1.67 10.66 1.34 11.32 1 12 C-1.5625 9.75 -1.5625 9.75 -4 7 C-4 4.22141617 -3.27387266 3.30673738 -1.4375 1.25 C-0.963125 0.8375 -0.48875 0.425 0 0 Z " fill="#D3B334" transform="translate(31,307)"/>
<path d="M0 0 C0.99 0.33 1.98 0.66 3 1 C3 1.99 3 2.98 3 4 C4.32 4.33 5.64 4.66 7 5 C6.67 6.32 6.34 7.64 6 9 C3.69 6.69 1.38 4.38 -1 2 C-0.67 1.34 -0.34 0.68 0 0 Z " fill="#DFBB2A" transform="translate(266,301)"/>
<path d="M0 0 C0.99 0.33 1.98 0.66 3 1 C3 1.99 3 2.98 3 4 C4.32 4.33 5.64 4.66 7 5 C6.67 6.32 6.34 7.64 6 9 C3.69 6.69 1.38 4.38 -1 2 C-0.67 1.34 -0.34 0.68 0 0 Z " fill="#DFBA2A" transform="translate(250,285)"/>
<path d="M0 0 C1.65 1.32 3.3 2.64 5 4 C5.99 3.01 6.98 2.02 8 1 C8 2.65 8 4.3 8 6 C5.69 6 3.38 6 1 6 C0.67 4.02 0.34 2.04 0 0 Z " fill="#D0B026" transform="translate(307,268)"/>
<path d="M0 0 C2.52940738 3.13164723 4.44920018 6.27808042 6 10 C5.578125 12.1875 5.578125 12.1875 5 14 C4.15675328 12.421924 3.32576082 10.8372958 2.5 9.25 C2.0359375 8.36828125 1.571875 7.4865625 1.09375 6.578125 C0 4 0 4 0 0 Z " fill="#534616" transform="translate(313,181)"/>
<path d="M0 0 C1.65 0 3.3 0 5 0 C5.33 1.32 5.66 2.64 6 4 C3.525 3.01 3.525 3.01 1 2 C0.71125 2.639375 0.4225 3.27875 0.125 3.9375 C-1 6 -1 6 -3 7 C-3.33 6.01 -3.66 5.02 -4 4 C-3.01 4 -2.02 4 -1 4 C-0.67 2.68 -0.34 1.36 0 0 Z " fill="#51471E" transform="translate(310,25)"/>
<path d="M0 0 C2.97 0.495 2.97 0.495 6 1 C2.80009492 3.74277578 -0.00499382 5.6302836 -4 7 C-3.67 5.68 -3.34 4.36 -3 3 C-2.34 3 -1.68 3 -1 3 C-0.67 2.01 -0.34 1.02 0 0 Z " fill="#E0BC28" transform="translate(173,138)"/>
<path d="M0 0 C1.32 0.66 2.64 1.32 4 2 C1.03 4.475 1.03 4.475 -2 7 C-2.6875 5.1875 -2.6875 5.1875 -3 3 C-1.5625 1.25 -1.5625 1.25 0 0 Z " fill="#ECC229" transform="translate(334,75)"/>
<path d="M0 0 C0 3 0 3 -1 5 C-1.66 5 -2.32 5 -3 5 C-3 5.66 -3 6.32 -3 7 C-5 8.625 -5 8.625 -7 10 C-7.66 9.67 -8.32 9.34 -9 9 C-6.21000549 5.51250686 -3.74764169 2.49842779 0 0 Z " fill="#D9BD2C" transform="translate(286,53)"/>
<path d="M0 0 C1.65 1.65 3.3 3.3 5 5 C0.545 5.495 0.545 5.495 -4 6 C-3.34 5.01 -2.68 4.02 -2 3 C-1.34 3 -0.68 3 0 3 C0 2.01 0 1.02 0 0 Z " fill="#EAC120" transform="translate(319,33)"/>
<path d="M0 0 C1.9375 0.625 1.9375 0.625 4 2 C4.75 5.125 4.75 5.125 5 8 C3.02 6.35 1.04 4.7 -1 3 C-0.67 2.01 -0.34 1.02 0 0 Z " fill="#E5BE2A" transform="translate(336,370)"/>
<path d="M0 0 C0.66 0 1.32 0 2 0 C1.64950425 3.24208567 1.43778819 4.61527704 -1.0625 6.8125 C-1.701875 7.204375 -2.34125 7.59625 -3 8 C-3.33 6.68 -3.66 5.36 -4 4 C-3.34 4 -2.68 4 -2 4 C-1.34 2.68 -0.68 1.36 0 0 Z " fill="#E1B920" transform="translate(384,358)"/>
<path d="M0 0 C1.0625 1.75 1.0625 1.75 2 4 C1.67 5.32 1.34 6.64 1 8 C-0.65 5.69 -2.3 3.38 -4 1 C-2.68 0.67 -1.36 0.34 0 0 Z " fill="#E1BC24" transform="translate(101,322)"/>
<path d="M0 0 C1.32 0 2.64 0 4 0 C4.33 2.31 4.66 4.62 5 7 C3.02 5.35 1.04 3.7 -1 2 C-0.67 1.34 -0.34 0.68 0 0 Z " fill="#3F3926" transform="translate(302,260)"/>
<path d="M0 0 C1.32 0 2.64 0 4 0 C4.33 2.31 4.66 4.62 5 7 C3.02 5.35 1.04 3.7 -1 2 C-0.67 1.34 -0.34 0.68 0 0 Z " fill="#3F3926" transform="translate(286,244)"/>
<path d="M0 0 C0.33 0 0.66 0 1 0 C1 2.64 1 5.28 1 8 C0.34 8 -0.32 8 -1 8 C-1.66 9.98 -2.32 11.96 -3 14 C-4 12 -4 12 -3.22265625 9.1796875 C-2.83980469 8.08914062 -2.45695312 6.99859375 -2.0625 5.875 C-1.68222656 4.77929688 -1.30195312 3.68359375 -0.91015625 2.5546875 C-0.60980469 1.71164063 -0.30945313 0.86859375 0 0 Z " fill="#D3B42D" transform="translate(74,170)"/>
<path d="M0 0 C2.475 0.495 2.475 0.495 5 1 C5.99 3.97 6.98 6.94 8 10 C4.71211176 6.88983545 2.16264012 3.98381075 0 0 Z " fill="#D7B729" transform="translate(301,162)"/>
<path d="M0 0 C0.99 0 1.98 0 3 0 C2.54917531 1.46067199 2.08906463 2.91848032 1.625 4.375 C1.36976562 5.18710938 1.11453125 5.99921875 0.8515625 6.8359375 C0 9 0 9 -2 11 C-2 9.02 -2 7.04 -2 5 C-1.34 5 -0.68 5 0 5 C0 3.35 0 1.7 0 0 Z " fill="#4B421C" transform="translate(77,156)"/>
<path d="M0 0 C2.97 0.495 2.97 0.495 6 1 C6 3.64 6 6.28 6 9 C5.01 8.67 4.02 8.34 3 8 C3 6.68 3 5.36 3 4 C1.58022091 1.77256213 1.58022091 1.77256213 0 0 Z " fill="#48401A" transform="translate(345,58)"/>
<path d="M0 0 C2.31 1.98 4.62 3.96 7 6 C5 7 5 7 2.4375 6.1875 C0 5 0 5 -1 3 C-0.67 2.01 -0.34 1.02 0 0 Z " fill="#E7C22A" transform="translate(340,54)"/>
<path d="M0 0 C2.31 1.98 4.62 3.96 7 6 C6.01 6 5.02 6 4 6 C3.01 6.33 2.02 6.66 1 7 C0 2.25 0 2.25 0 0 Z " fill="#463D20" transform="translate(29,316)"/>
<path d="M0 0 C1.65 1.65 3.3 3.3 5 5 C0.25 8 0.25 8 -2 8 C-2 6 -2 6 0 4 C0 2.68 0 1.36 0 0 Z " fill="#493C15" transform="translate(269,307)"/>
<path d="M0 0 C0.33 1.32 0.66 2.64 1 4 C0.01 4 -0.98 4 -2 4 C-2.33 5.32 -2.66 6.64 -3 8 C-4.32 7.67 -5.64 7.34 -7 7 C-4.69 4.69 -2.38 2.38 0 0 Z " fill="#CAAB2A" transform="translate(39,299)"/>
<path d="M0 0 C2.31 1.98 4.62 3.96 7 6 C4 8 4 8 2 8 C2 7.01 2 6.02 2 5 C1.34 4.67 0.68 4.34 0 4 C0 2.68 0 1.36 0 0 Z " fill="#443A1D" transform="translate(258,296)"/>
<path d="M0 0 C0.33 1.32 0.66 2.64 1 4 C0.01 4 -0.98 4 -2 4 C-2.33 5.32 -2.66 6.64 -3 8 C-4.32 7.67 -5.64 7.34 -7 7 C-4.69 4.69 -2.38 2.38 0 0 Z " fill="#CAAB2A" transform="translate(55,283)"/>
<path d="M0 0 C2.60598877 3.90898316 2.70354328 6.33080658 3 11 C2.34 11.66 1.68 12.32 1 13 C-0.10228696 8.59085217 -0.07654536 4.51617599 0 0 Z " fill="#574917" transform="translate(67,258)"/>
<path d="M0 0 C2.31 1.98 4.62 3.96 7 6 C3 7 3 7 1 6 C1 5.34 1 4.68 1 4 C0.34 3.67 -0.32 3.34 -1 3 C-0.67 2.01 -0.34 1.02 0 0 Z " fill="#E8C229" transform="translate(324,38)"/>
<path d="M0 0 C0.33 0.66 0.66 1.32 1 2 C0.34 2 -0.32 2 -1 2 C-1.33 3.65 -1.66 5.3 -2 7 C-3.65 7 -5.3 7 -7 7 C-2.25 1.125 -2.25 1.125 0 0 Z " fill="#3B3B22" transform="translate(370,378)"/>
<path d="M0 0 C1 2 1 2 0.22265625 4.3828125 C-0.16019531 5.28773438 -0.54304688 6.19265625 -0.9375 7.125 C-1.31777344 8.03507812 -1.69804687 8.94515625 -2.08984375 9.8828125 C-2.39019531 10.58148438 -2.69054687 11.28015625 -3 12 C-3.99 11.01 -4.98 10.02 -6 9 C-4.02 6.03 -2.04 3.06 0 0 Z " fill="#534211" transform="translate(364,309)"/>
<path d="M0 0 C1.98 1.65 3.96 3.3 6 5 C2.25 7 2.25 7 0 7 C0 4.69 0 2.38 0 0 Z " fill="#D1B223" transform="translate(285,246)"/>
<path d="M0 0 C1.32 0.33 2.64 0.66 4 1 C0.535 3.97 0.535 3.97 -3 7 C-3 5.68 -3 4.36 -3 3 C-2.34 3 -1.68 3 -1 3 C-0.67 2.01 -0.34 1.02 0 0 Z " fill="#413D1F" transform="translate(110,109)"/>
<path d="M0 0 C-0.33 0.66 -0.66 1.32 -1 2 C-4.63 1.67 -8.26 1.34 -12 1 C-12 0.67 -12 0.34 -12 0 C-7.66726186 -0.92844389 -4.33273814 -0.92844389 0 0 Z " fill="#D2B126" transform="translate(206,67)"/>
<path d="M0 0 C4.81449408 0.48144941 7.60171741 0.8008587 12 3 C8.7 3 5.4 3 2 3 C2 2.34 2 1.68 2 1 C1.34 0.67 0.68 0.34 0 0 Z " fill="#49411C" transform="translate(182,382)"/>
<path d="M0 0 C-0.99 1.32 -1.98 2.64 -3 4 C-5.31 3.67 -7.62 3.34 -10 3 C-7.28464405 0.28464405 -3.67870689 -1.83935344 0 0 Z " fill="#57491B" transform="translate(286,377)"/>
<path d="M0 0 C2.31 0.33 4.62 0.66 7 1 C7 1.99 7 2.98 7 4 C7.66 4 8.32 4 9 4 C8.67 4.66 8.34 5.32 8 6 C6.66402348 5.19185349 5.331275 4.37836819 4 3.5625 C3.2575 3.11003906 2.515 2.65757812 1.75 2.19140625 C1.1725 1.79824219 0.595 1.40507812 0 1 C0 0.67 0 0.34 0 0 Z " fill="#DABA28" transform="translate(142,363)"/>
<path d="M0 0 C1.0625 1.8125 1.0625 1.8125 2 4 C1.67 4.99 1.34 5.98 1 7 C-0.65 5.02 -2.3 3.04 -4 1 C-2.68 0.67 -1.36 0.34 0 0 Z " fill="#3F3924" transform="translate(375,330)"/>
<path d="M0 0 C1.32 1.32 2.64 2.64 4 4 C0.94736336 4.98120464 -0.94736336 4.98120464 -4 4 C-2.68 2.68 -1.36 1.36 0 0 Z " fill="#4D4219" transform="translate(94,320)"/>
<path d="M0 0 C2 3 2 3 1.625 5.1875 C1.41875 5.785625 1.2125 6.38375 1 7 C-0.65 5.02 -2.3 3.04 -4 1 C-2 0 -2 0 0 0 Z " fill="#E0BC28" transform="translate(243,275)"/>
<path d="M0 0 C1.66611905 -0.042721 3.33382885 -0.04063832 5 0 C6 1 6 1 6.0625 3.5625 C6.041875 4.366875 6.02125 5.17125 6 6 C3.97945196 4.35830472 1.97956942 2.69088222 0 1 C0 0.67 0 0.34 0 0 Z " fill="#DDB928" transform="translate(223,260)"/>
<path d="M0 0 C0.33 0 0.66 0 1 0 C1.8125 2.6875 1.8125 2.6875 2 6 C-0.4375 8.875 -0.4375 8.875 -3 11 C-2.01 7.37 -1.02 3.74 0 0 Z " fill="#DBBA2E" transform="translate(322,248)"/>
<path d="M0 0 C0.99 0.33 1.98 0.66 3 1 C0.525 4.465 0.525 4.465 -2 8 C-2.33 7.34 -2.66 6.68 -3 6 C-1.44444444 1.44444444 -1.44444444 1.44444444 0 0 Z " fill="#323232" transform="translate(404,359)"/>
<path d="M0 0 C1.32 1.32 2.64 2.64 4 4 C2.35 4.33 0.7 4.66 -1 5 C-1 4.34 -1 3.68 -1 3 C-1.66 2.67 -2.32 2.34 -3 2 C-2.01 1.34 -1.02 0.68 0 0 Z " fill="#3B3D24" transform="translate(108,337)"/>
<path d="M0 0 C1.98 1.65 3.96 3.3 6 5 C3 6 3 6 0 6 C0 4.02 0 2.04 0 0 Z " fill="#D3B126" transform="translate(358,319)"/>
<path d="M0 0 C6.875 3.75 6.875 3.75 8 6 C5.33333333 5.33333333 2.66666667 4.66666667 0 4 C0 2.68 0 1.36 0 0 Z " fill="#D7B72C" transform="translate(164,303)"/>
<path d="M0 0 C0.66 0.33 1.32 0.66 2 1 C1.46930939 4.82097239 0.50298434 7.06171403 -2 10 C-1.125 2.25 -1.125 2.25 0 0 Z " fill="#D6BA2D" transform="translate(371,290)"/>
<path d="M0 0 C1.98 1.65 3.96 3.3 6 5 C3 6 3 6 0 5 C0 3.35 0 1.7 0 0 Z " fill="#CFB025" transform="translate(301,262)"/>
<path d="M0 0 C0.66 0.33 1.32 0.66 2 1 C1.67 1.99 1.34 2.98 1 4 C-1.31 4.33 -3.62 4.66 -6 5 C-4.06745228 2.9754262 -2.36841312 1.57894208 0 0 Z " fill="#51401E" transform="translate(315,360)"/>
<path d="M0 0 C3.7910119 1.44950455 7.3874638 3.15172566 11 5 C8 6 8 6 5.95703125 5.22265625 C5.24933594 4.83980469 4.54164063 4.45695312 3.8125 4.0625 C3.09707031 3.68222656 2.38164062 3.30195313 1.64453125 2.91015625 C1.10183594 2.60980469 0.55914062 2.30945313 0 2 C0 1.34 0 0.68 0 0 Z " fill="#D3B433" transform="translate(172,309)"/>
<path d="M0 0 C1.32 1.32 2.64 2.64 4 4 C3.67 4.99 3.34 5.98 3 7 C1.35 5.02 -0.3 3.04 -2 1 C-1.34 0.67 -0.68 0.34 0 0 Z " fill="#DEBB2C" transform="translate(259,293)"/>
<path d="M0 0 C1.14926266 0.95421808 2.29430541 1.91352045 3.4375 2.875 C4.07558594 3.40867187 4.71367187 3.94234375 5.37109375 4.4921875 C7 6 7 6 8 8 C5.6875 7.8125 5.6875 7.8125 3 7 C0 2.96551724 0 2.96551724 0 0 Z " fill="#483917" transform="translate(241,279)"/>
<path d="M0 0 C3 1 3 1 4.25 3.3125 C5.04631835 6.16597407 4.8214856 7.24802325 4 10 C3.32845067 8.71086513 2.66291141 7.41859796 2 6.125 C1.62875 5.40570313 1.2575 4.68640625 0.875 3.9453125 C0 2 0 2 0 0 Z " fill="#D3B634" transform="translate(313,179)"/>
<path d="M0 0 C2.50037734 2.17424117 3.43628586 3.73045798 4 7 C2.35 6.67 0.7 6.34 -1 6 C-0.67 4.02 -0.34 2.04 0 0 Z " fill="#4B411E" transform="translate(309,174)"/>
<path d="M0 0 C0.99 0.33 1.98 0.66 3 1 C2.25 5.75 2.25 5.75 0 8 C-0.38063221 5.6739143 -0.71269945 3.33944736 -1 1 C-0.67 0.67 -0.34 0.34 0 0 Z " fill="#E5C127" transform="translate(373,283)"/>
<path d="M0 0 C2.02054804 1.64169528 4.02043058 3.30911778 6 5 C6 5.33 6 5.66 6 6 C4.35 6 2.7 6 1 6 C0.67 4.02 0.34 2.04 0 0 Z " fill="#CBAD27" transform="translate(291,252)"/>
<path d="M0 0 C1.67542976 0.28604898 3.34385343 0.61781233 5 1 C3.02 3.97 3.02 3.97 1 7 C0.67 6.01 0.34 5.02 0 4 C0.33 3.67 0.66 3.34 1 3 C0.34 2.34 -0.32 1.68 -1 1 C-0.67 0.67 -0.34 0.34 0 0 Z " fill="#473E1F" transform="translate(97,121)"/>
<path d="M0 0 C6.875 3.75 6.875 3.75 8 6 C5.03 5.505 5.03 5.505 2 5 C2 4.01 2 3.02 2 2 C1.34 2 0.68 2 0 2 C0 1.34 0 0.68 0 0 Z " fill="#DFBD2B" transform="translate(322,97)"/>
<path d="M0 0 C0.33 0.99 0.66 1.98 1 3 C-0.32 3.99 -1.64 4.98 -3 6 C-3.66 5.67 -4.32 5.34 -5 5 C-3.35 3.35 -1.7 1.7 0 0 Z " fill="#DAB52A" transform="translate(292,47)"/>
<path d="M0 0 C0.33 0.99 0.66 1.98 1 3 C-0.32 3.99 -1.64 4.98 -3 6 C-3.66 5.67 -4.32 5.34 -5 5 C-3.35 3.35 -1.7 1.7 0 0 Z " fill="#DAB52A" transform="translate(308,31)"/>
</svg>
